# xmcd
#
# Track frame offsets:
#	150
#	14101
#	33585
#	47693
#	59771
#	77781
#	88454
#	106909
#	118227
#	139405
#
# Disc length: 2042 seconds
#
# Revision: 1
# Processed by: cddbd v1.4PL0 Copyright (c) Steve Scherf et al.
# Submitted via: audiograbber 1.82.02
#
DISCID=9807f80a
DTITLE=Florence Dore - Perfect City
DYEAR=2002
DGENRE=Country
TTITLE0=Early World
TTITLE1=Perfect City
TTITLE2=No Nashville
TTITLE3=Framed
TTITLE4=Christmas
TTITLE5=Everything I Dreamed
TTITLE6=Postcard
TTITLE7=Brain
TTITLE8=Say The Thing
TTITLE9=Wintertown (Ode To Kent, OH)
EXTD=
EXTT0=
EXTT1=
EXTT2=
EXTT3=
EXTT4=
EXTT5=
EXTT6=
EXTT7=
EXTT8=
EXTT9=
PLAYORDER=
